<?xml version="1.0" encoding="UTF-8"?>
<svg width="20px" height="20px" viewBox="0 0 20 20" version="1.1" xmlns="http://www.w3.org/2000/svg" xmlns:xlink="http://www.w3.org/1999/xlink">
    <!-- Generator: Sketch 63.1 (92452) - https://sketch.com -->
    <title>Checkout</title>
    <desc>Created with Sketch.</desc>
    <g id="Symbols" stroke="none" stroke-width="1" fill="none" fill-rule="evenodd">
        <g id="Atom/Icon/Sidebar/Checkout" transform="translate(-2.000000, -2.000000)">
            <g id="Checkout">
                <rect id="Bounds" x="0" y="0" width="24" height="24"></rect>
                <path d="M13.997468,18.0130142 C14.5517318,18.0130142 15.0010514,17.5667641 15.0010514,17.0162868 L15.0010514,15.0228319 C15.0010514,14.4723545 14.5517318,14.0261044 13.997468,14.0261044 C13.4432042,14.0261044 12.9938846,14.4723545 12.9938846,15.0228319 L12.9938846,17.0162868 C12.9938846,17.5667641 13.4432042,18.0130142 13.997468,18.0130142 Z M9.98313447,18.0130142 C10.5373983,18.0130142 10.9867179,17.5667641 10.9867179,17.0162868 L10.9867179,15.0228319 C10.9867179,14.4723545 10.5373983,14.0261044 9.98313447,14.0261044 C9.42887067,14.0261044 8.97955109,14.4723545 8.97955109,15.0228319 L8.97955109,17.0162868 C8.97955109,17.5667641 9.42887067,18.0130142 9.98313447,18.0130142 Z M19.0153849,6.05228484 L17.6304399,6.05228484 L15.8942406,2.61357514 C15.7496269,2.26866893 15.4229427,2.0330489 15.0479598,2.00319752 C14.6729769,1.97334613 14.3126744,2.15427701 14.1145903,2.47190195 C13.9165061,2.7895269 13.9139089,3.19050015 14.1078622,3.51062984 L15.3824131,6.05228484 L8.5981894,6.05228484 L9.8727403,3.51062984 C10.0748122,3.02868504 9.86821002,2.47353865 9.39911135,2.23797425 C8.93001268,2.00240985 8.3573769,2.16625109 8.08636188,2.61357514 L6.35016262,6.05228484 L4.96521755,6.05228484 C3.50079401,6.07440609 2.26484514,7.13993629 2.03693233,8.57680377 C1.80901951,10.0136713 2.65527017,11.4049783 4.04192084,11.8731731 L4.78457254,19.3087599 C4.93975257,20.8424283 6.24334702,22.0076484 7.7953227,21.9999622 L16.2053515,21.9999622 C17.7573271,22.0076484 19.0609216,20.8424283 19.2161016,19.3087599 L19.9587533,11.8731731 C21.3486294,11.40352 22.194781,10.0067331 21.9614769,8.56717183 C21.7281729,7.12761055 20.4834478,6.06506975 19.0153849,6.05228484 Z M17.198899,19.1094144 C17.1471723,19.6206372 16.7126408,20.0090439 16.1953156,20.0064818 L7.78528686,20.0064818 C7.26796164,20.0090439 6.83343015,19.6206372 6.78170348,19.1094144 L6.06915928,12.0326495 L17.9114432,12.0326495 L17.198899,19.1094144 Z M19.0153849,10.0391946 L4.96521755,10.0391946 C4.41095376,10.0391946 3.96163417,9.59294455 3.96163417,9.04246718 C3.96163417,8.49198981 4.41095376,8.04573973 4.96521755,8.04573973 L19.0153849,8.04573973 C19.5696487,8.04573973 20.0189683,8.49198981 20.0189683,9.04246718 C20.0189683,9.59294455 19.5696487,10.0391946 19.0153849,10.0391946 Z" id="Shape" fill="#686C73" fill-rule="nonzero"></path>
            </g>
        </g>
    </g>
</svg>