<svg xmlns="http://www.w3.org/2000/svg" width="30" height="30" viewBox="0 0 30 30">
    <g fill="none" fill-rule="evenodd">
        <path d="M0 0H36V36H0z" transform="translate(-3 -3)"/>
        <path fill="#CF3E4C" fill-rule="nonzero" d="M31.98 14.325l-2.835-.945 1.335-2.67c.277-.573.163-1.258-.285-1.71L27 5.805c-.454-.455-1.148-.57-1.725-.285l-2.67 1.335-.945-2.835c-.205-.606-.77-1.015-1.41-1.02h-4.5c-.645-.002-1.219.409-1.425 1.02l-.945 2.835-2.67-1.335c-.573-.277-1.258-.163-1.71.285L5.805 9c-.455.454-.57 1.148-.285 1.725l1.335 2.67-2.835.945c-.606.205-1.015.77-1.02 1.41v4.5c-.002.645.409 1.219 1.02 1.425l2.835.945-1.335 2.67c-.277.573-.163 1.258.285 1.71L9 30.195c.454.455 1.148.57 1.725.285l2.67-1.335.945 2.835c.206.611.78 1.022 1.425 1.02h4.5c.645.002 1.219-.409 1.425-1.02l.945-2.835 2.67 1.335c.569.27 1.246.156 1.695-.285L30.195 27c.455-.454.57-1.148.285-1.725l-1.335-2.67 2.835-.945c.606-.205 1.015-.77 1.02-1.41v-4.5c.002-.645-.409-1.219-1.02-1.425zM30 19.17l-1.8.6c-.838.272-1.514.898-1.849 1.712-.335.815-.295 1.735.109 2.518l.855 1.71-1.65 1.65-1.665-.9c-.778-.388-1.687-.419-2.49-.085-.802.334-1.421 1-1.695 1.825l-.6 1.8H16.83l-.6-1.8c-.272-.838-.898-1.514-1.712-1.849-.815-.335-1.735-.295-2.518.109l-1.71.855-1.65-1.65.9-1.665c.404-.783.444-1.703.109-2.518-.335-.814-1.011-1.44-1.849-1.712l-1.8-.6v-2.34l1.8-.6c.838-.272 1.514-.898 1.849-1.712.335-.815.295-1.735-.109-2.518l-.855-1.665 1.65-1.65L12 9.54c.783.404 1.703.444 2.518.109.814-.335 1.44-1.011 1.712-1.849l.6-1.8h2.34l.6 1.8c.272.838.898 1.514 1.712 1.849.815.335 1.735.295 2.518-.109l1.71-.855 1.65 1.65-.9 1.665c-.388.778-.419 1.687-.085 2.49.334.802 1 1.421 1.825 1.695l1.8.6v2.385zM18 12c-3.314 0-6 2.686-6 6s2.686 6 6 6 6-2.686 6-6c0-1.591-.632-3.117-1.757-4.243C21.117 12.632 19.59 12 18 12zm0 9c-1.657 0-3-1.343-3-3s1.343-3 3-3 3 1.343 3 3-1.343 3-3 3z" transform="translate(-3 -3)"/>
    </g>
</svg>
