<?xml version="1.0" encoding="UTF-8"?>
<svg width="18px" height="20px" viewBox="0 0 18 20" version="1.1" xmlns="http://www.w3.org/2000/svg" xmlns:xlink="http://www.w3.org/1999/xlink">
    <!-- Generator: Sketch 63.1 (92452) - https://sketch.com -->
    <title>Deals</title>
    <desc>Created with Sketch.</desc>
    <g id="Symbols" stroke="none" stroke-width="1" fill="none" fill-rule="evenodd">
        <g id="Atom/Icon/Sidebar/Deals" transform="translate(-3.000000, -2.000000)">
            <g id="Deals">
                <path d="M18,7.00395805 L17.65,7.00395805 C17.8782175,6.53684692 17.9978658,6.02420382 18,5.50435385 C18.0061925,4.07943426 17.1450543,2.79393364 15.824745,2.25714952 C14.5044356,1.72036539 12.9902987,2.04017567 12,3.06499769 C11.0097013,2.04017567 9.49556439,1.72036539 8.17525503,2.25714952 C6.85494568,2.79393364 5.99380747,4.07943426 6,5.50435385 C6.00213421,6.02420382 6.12178251,6.53684692 6.35,7.00395805 L6,7.00395805 C4.34314575,7.00395805 3,8.34674938 3,10.0031664 L3,12.0026387 C3,12.5547777 3.44771525,13.0023748 4,13.0023748 L5,13.0023748 L5,19.0007916 C5,20.6572087 6.34314575,22 8,22 L16,22 C17.6568542,22 19,20.6572087 19,19.0007916 L19,13.0023748 L20,13.0023748 C20.5522847,13.0023748 21,12.5547777 21,12.0026387 L21,10.0031664 C21,8.34674938 19.6568542,7.00395805 18,7.00395805 Z M11,20.0005277 L8,20.0005277 C7.44771525,20.0005277 7,19.5529306 7,19.0007916 L7,13.0023748 L11,13.0023748 L11,20.0005277 Z M11,11.0029026 L5,11.0029026 L5,10.0031664 C5,9.45102742 5.44771525,9.00343031 6,9.00343031 L11,9.00343031 L11,11.0029026 Z M11,7.00395805 L9.5,7.00395805 C8.67157288,7.00395805 8,6.33256238 8,5.50435385 C8,4.67614532 8.67157288,4.00474965 9.5,4.00474965 C10.3284271,4.00474965 11,4.67614532 11,5.50435385 L11,7.00395805 Z M13,5.50435385 C13,4.67614532 13.6715729,4.00474965 14.5,4.00474965 C15.3284271,4.00474965 16,4.67614532 16,5.50435385 C16,6.33256238 15.3284271,7.00395805 14.5,7.00395805 L13,7.00395805 L13,5.50435385 Z M17,19.0007916 C17,19.5529306 16.5522847,20.0005277 16,20.0005277 L13,20.0005277 L13,13.0023748 L17,13.0023748 L17,19.0007916 Z M19,11.0029026 L13,11.0029026 L13,9.00343031 L18,9.00343031 C18.5522847,9.00343031 19,9.45102742 19,10.0031664 L19,11.0029026 Z" id="Shape" fill="#686C73" fill-rule="nonzero"></path>
                <rect id="Bounds" x="0" y="0" width="24" height="24"></rect>
            </g>
        </g>
    </g>
</svg>