<?xml version="1.0" encoding="UTF-8"?>
<svg width="20px" height="20px" viewBox="0 0 20 20" version="1.1" xmlns="http://www.w3.org/2000/svg" xmlns:xlink="http://www.w3.org/1999/xlink">
    <!-- Generator: Sketch 63.1 (92452) - https://sketch.com -->
    <title>Home</title>
    <desc>Created with Sketch.</desc>
    <g id="Symbols" stroke="none" stroke-width="1" fill="none" fill-rule="evenodd">
        <g id="Atom/Icon/Sidebar/Dashboard" transform="translate(-2.000000, -2.000000)">
            <g id="Home">
                <rect id="Bounds" x="0" y="0" width="24" height="24"></rect>
                <path d="M20.1480972,8.01673239 L20.1480972,8.01673239 L14.0370714,2.76301899 C12.877196,1.74566034 11.1229296,1.74566034 9.9630542,2.76301899 L3.85202842,8.01673239 C3.19758273,8.59071579 2.82654485,9.41304261 2.83342741,10.2740313 L2.83342741,19.0035855 C2.83342741,20.6584595 4.20152385,22 5.88903702,22 L18.1110886,22 C19.7986017,22 21.1666343,20.6584595 21.1666343,19.0035855 L21.1666343,10.2640433 C21.1706539,9.40652974 20.7998714,8.58840501 20.1480972,8.01673239 Z M14.0370714,20.0023903 L9.9630542,20.0023903 L9.9630542,15.0083662 C9.9630542,14.4567415 10.4190541,14.0095614 10.9815585,14.0095614 L13.0185671,14.0095614 C13.5810715,14.0095614 14.0370714,14.4567415 14.0370714,15.0083662 L14.0370714,20.0023903 Z M19.1295929,19.0035855 C19.1295929,19.5552102 18.6735929,20.0023903 18.1110886,20.0023903 L16.07408,20.0023903 L16.07408,15.0083662 C16.07408,13.3534922 14.7060803,12.0119517 13.0185671,12.0119517 L10.9815585,12.0119517 C9.29404532,12.0119517 7.92604561,13.3534922 7.92604561,15.0083662 L7.92604561,20.0023903 L5.88903702,20.0023903 C5.32653263,20.0023903 4.87053272,19.5552102 4.87053272,19.0035855 L4.87053272,10.2640433 C4.87090317,9.97715939 4.99704699,9.70428291 5.21682418,9.51493964 L11.32785,4.27121428 C11.7123417,3.93996479 12.2877839,3.93996479 12.6722756,4.27121428 L18.7833014,9.51493964 C19.0030786,9.70428291 19.1292224,9.97715939 19.1295929,10.2640433 L19.1295929,19.0035855 Z" id="Shape" fill="#686C73" fill-rule="nonzero"></path>
            </g>
        </g>
    </g>
</svg>