<?xml version="1.0" encoding="UTF-8"?>
<svg width="18px" height="20px" viewBox="0 0 18 20" version="1.1" xmlns="http://www.w3.org/2000/svg" xmlns:xlink="http://www.w3.org/1999/xlink">
    <!-- Generator: Sketch 63.1 (92452) - https://sketch.com -->
    <title>Market Research</title>
    <desc>Created with Sketch.</desc>
    <g id="Symbols" stroke="none" stroke-width="1" fill="none" fill-rule="evenodd">
        <g id="Atom/Icon/Sidebar/Market-Research" transform="translate(-3.000000, -2.000000)">
            <g id="Market-Research">
                <rect id="Bounds" x="0" y="0" width="24" height="24"></rect>
                <path d="M4.5,12 C3.94771525,12 3.5,12.4477153 3.5,13 L3.5,21 C3.5,21.5522847 3.94771525,22 4.5,22 C5.05228475,22 5.5,21.5522847 5.5,21 L5.5,13 C5.5,12.4477153 5.05228475,12 4.5,12 Z M9.5,2 C8.94771525,2 8.5,2.44771525 8.5,3 L8.5,21 C8.5,21.5522847 8.94771525,22 9.5,22 C10.0522847,22 10.5,21.5522847 10.5,21 L10.5,3 C10.5,2.44771525 10.0522847,2 9.5,2 Z M19.5,16 C18.9477153,16 18.5,16.4477153 18.5,17 L18.5,21 C18.5,21.5522847 18.9477153,22 19.5,22 C20.0522847,22 20.5,21.5522847 20.5,21 L20.5,17 C20.5,16.4477153 20.0522847,16 19.5,16 Z M14.5,8 C13.9477153,8 13.5,8.44771525 13.5,9 L13.5,21 C13.5,21.5522847 13.9477153,22 14.5,22 C15.0522847,22 15.5,21.5522847 15.5,21 L15.5,9 C15.5,8.44771525 15.0522847,8 14.5,8 Z" id="Shape" fill="#686C73" fill-rule="nonzero"></path>
            </g>
        </g>
    </g>
</svg>