<?xml version="1.0" encoding="UTF-8"?>
<svg width="20px" height="20px" viewBox="0 0 20 20" version="1.1" xmlns="http://www.w3.org/2000/svg" xmlns:xlink="http://www.w3.org/1999/xlink">
    <!-- Generator: Sketch 63.1 (92452) - https://sketch.com -->
    <title>Review</title>
    <desc>Created with Sketch.</desc>
    <g id="Symbols" stroke="none" stroke-width="1" fill="none" fill-rule="evenodd">
        <g id="Atom/Icon/Sidebar/Reviews" transform="translate(-2.000000, -2.000000)">
            <g id="Review">
                <rect id="Bounds" x="0" y="0" width="24" height="24"></rect>
                <path d="M21.9664179,9.68716038 C21.8375696,9.3158896 21.5009567,9.05499121 21.1075895,9.02150871 L15.4253411,8.19689545 L12.878815,3.060449 C12.7119562,2.71769768 12.3628414,2.5 11.980041,2.5 C11.5972407,2.5 11.2481259,2.71769768 11.0812671,3.060449 L8.53474102,8.18696035 L2.85249256,9.02150871 C2.47542987,9.07482725 2.16167909,9.3368705 2.04359603,9.69709548 C1.93562772,10.0487123 2.03166853,10.430903 2.29325546,10.6906054 L6.41762912,14.6646452 L5.41899143,20.3077818 C5.34619777,20.6880945 5.50209548,21.0758376 5.8184465,21.3012917 C6.12645622,21.5203558 6.53250272,21.5472866 6.86701608,21.3708374 L11.980041,18.7181658 L17.0730933,21.3807725 C17.2132498,21.4594352 17.371546,21.5005178 17.5324666,21.5 C17.7440045,21.5007432 17.9503174,21.4346446 18.1216628,21.3112268 C18.4380139,21.0857727 18.5939116,20.6980296 18.5211179,20.3177169 L17.5224802,14.6745803 L21.6468539,10.7005405 C21.9411514,10.4524908 22.0655503,10.0580053 21.9664179,9.68716038 Z M15.8247962,13.6612002 C15.5870017,13.8900225 15.478548,14.221154 15.5351912,14.545424 L16.2542104,18.7082307 L12.4993326,16.7212108 C12.2059275,16.5657814 11.8540184,16.5657814 11.5606132,16.7212108 L7.8057355,18.7082307 L8.52475464,14.545424 C8.58139785,14.221154 8.4729442,13.8900225 8.23514971,13.6612002 L5.23923664,10.6806703 L9.44350132,10.0746293 C9.77200015,10.0291708 10.0563809,9.82442567 10.202466,9.52819879 L11.980041,5.74292587 L13.8574799,9.53813388 C14.0035649,9.83436077 14.2879457,10.0391059 14.6164446,10.0845644 L18.8207092,10.6906054 L15.8247962,13.6612002 Z" id="Shape" fill="#686C73" fill-rule="nonzero"></path>
            </g>
        </g>
    </g>
</svg>