<?xml version="1.0" encoding="UTF-8"?>
<svg width="18px" height="20px" viewBox="0 0 18 20" version="1.1" xmlns="http://www.w3.org/2000/svg" xmlns:xlink="http://www.w3.org/1999/xlink">
    <!-- Generator: Sketch 63.1 (92452) - https://sketch.com -->
    <title>Sign Out</title>
    <desc>Created with Sketch.</desc>
    <g id="Symbols" stroke="none" stroke-width="1" fill="none" fill-rule="evenodd">
        <g id="Atom/Icon/Sidebar/Sign-Out" transform="translate(-3.000000, -2.000000)">
            <g id="Sign-Out">
                <rect id="Bounds" x="0" y="0" width="24" height="24"></rect>
                <path d="M17.0401801,7.29698232 C17.3932259,7.20273117 17.7699213,7.30329595 18.0283687,7.56079489 C21.3332076,10.8732731 21.322488,16.226203 18.0044085,19.5255156 C14.6863291,22.8248281 9.31367087,22.8248281 5.99559146,19.5255156 C2.67751205,16.226203 2.66679244,10.8732731 5.97163128,7.56079489 C6.23007872,7.30329594 6.60677409,7.20273115 6.95981986,7.29698231 C7.31286564,7.39123346 7.58862579,7.66598156 7.68322412,8.01773165 C7.77782245,8.36948175 7.67688722,8.74479463 7.41843977,9.00229356 C5.56453663,10.8487137 5.00965601,13.6260473 6.01257405,16.039047 C7.01549209,18.4520468 9.378667,20.0254313 12,20.0254313 C14.621333,20.0254313 16.9845079,18.4520468 17.9874259,16.039047 C18.990344,13.6260473 18.4354634,10.8487137 16.5815602,9.00229356 C16.3231128,8.74479463 16.2221776,8.36948175 16.3167759,8.01773166 C16.4113742,7.66598157 16.6871344,7.39123347 17.0401801,7.29698232 Z M11.6182033,2.07509158 C11.8628158,1.97496947 12.1371842,1.97496947 12.3817967,2.07509158 C12.5051284,2.12273551 12.6178036,2.19417476 12.713357,2.28531014 L12.713357,2.28531014 L15.2251773,4.78791201 C15.415385,4.97587403 15.5223742,5.2317359 15.5223742,5.49865094 C15.5223742,5.76556598 15.415385,6.02142786 15.2251773,6.20938988 C15.0365229,6.39889955 14.7797185,6.50549605 14.5118203,6.50549605 C14.2439221,6.50549605 13.9871177,6.39889955 13.7984633,6.20938988 L13.7984633,6.20938988 L13.0047281,5.40855728 L13.0047281,10.0033343 C13.0047281,10.5561939 12.554896,11.0043751 12,11.0043751 C11.445104,11.0043751 10.9952719,10.5561939 10.9952719,10.0033343 L10.9952719,10.0033343 L10.9952719,5.40855728 L10.2015367,6.20938988 C9.80756049,6.60192015 9.16879891,6.60192015 8.77482274,6.20938988 C8.38084656,5.8168596 8.38084656,5.18044229 8.77482274,4.78791201 L8.77482274,4.78791201 L11.286643,2.28531014 C11.3821964,2.19417476 11.4948716,2.12273551 11.6182033,2.07509158 Z" id="Combined-Shape" fill="#686C73" fill-rule="nonzero"></path>
            </g>
        </g>
    </g>
</svg>