<svg xmlns="http://www.w3.org/2000/svg" width="30" height="30" viewBox="0 0 30 30">
    <g fill="none" fill-rule="evenodd">
        <path d="M0 0H36V36H0z" transform="translate(-3 -3)"/>
        <path fill="#CF3E4C" fill-rule="nonzero" d="M20.996 27.02c.832 0 1.506-.67 1.506-1.496v-2.99c0-.825-.674-1.495-1.506-1.495-.831 0-1.505.67-1.505 1.495v2.99c0 .826.674 1.496 1.505 1.496zm-6.021 0c.831 0 1.505-.67 1.505-1.496v-2.99c0-.825-.674-1.495-1.505-1.495-.832 0-1.506.67-1.506 1.495v2.99c0 .826.674 1.496 1.506 1.496zM28.523 9.078h-2.077L23.84 3.92c-.217-.517-.707-.87-1.27-.915-.562-.045-1.102.226-1.4.703-.296.476-.3 1.078-.01 1.558l1.913 3.812H12.897l1.912-3.812c.303-.723-.007-1.556-.71-1.909-.704-.353-1.563-.108-1.97.563L9.526 9.078H7.448c-2.197.034-4.05 1.632-4.393 3.787-.341 2.156.928 4.242 3.008 4.945l1.114 11.153c.233 2.3 2.188 4.048 4.516 4.037h12.615c2.328.011 4.283-1.736 4.516-4.037l1.114-11.153c2.085-.705 3.354-2.8 3.004-4.96-.35-2.159-2.217-3.752-4.419-3.772zm-2.725 19.586c-.077.767-.729 1.35-1.505 1.346H11.678c-.776.004-1.428-.579-1.505-1.346L9.103 18.05h17.764l-1.069 10.615zm2.725-13.605H7.448c-.832 0-1.506-.67-1.506-1.495 0-.826.674-1.495 1.506-1.495h21.075c.831 0 1.505.669 1.505 1.495 0 .825-.674 1.495-1.505 1.495z" transform="translate(-3 -3)"/>
    </g>
</svg>
