<?xml version="1.0" encoding="UTF-8"?>
<svg width="236.25px" height="28px" viewBox="0 0 675 80" version="1.1" xmlns="http://www.w3.org/2000/svg" xmlns:xlink="http://www.w3.org/1999/xlink">
    <!-- Generator: Sketch 63.1 (92452) - https://sketch.com -->
    <title>Logo/Checkout with REACH/Color</title>
    <desc>Created with Sketch.</desc>
    <defs>
        <linearGradient x1="0%" y1="0%" x2="100%" y2="100%" id="linearGradient-1">
            <stop stop-color="#9700C8" offset="0%"></stop>
            <stop stop-color="#FF9F00" offset="100%"></stop>
        </linearGradient>
    </defs>
    <g id="Logo/Checkout-with-REACH/Color" stroke="none" stroke-width="1" fill="none" fill-rule="evenodd">
        <g id="Logo/Icon/Color" fill="url(#linearGradient-1)">
            <g id="Icon">
                <path d="M80,0 L80,80 L0,80 L0,0 L80,0 Z M45.0180361,17 L35.1743487,17 L16,63 L23.9519038,63 L39.7915832,23.9403509 L55.1503006,63 L64,63 L45.0180361,17 Z" id="Combined-Shape" fill-rule="nonzero"></path>
            </g>
        </g>
        <g id="Logo/Text" transform="translate(487.000000, 20.000000)" fill="#2A2D34">
            <path d="M32.1644978,39.5068493 L24.6996997,39.5068493 L19.7048715,26.5205479 C19.2657636,25.3150625 18.5888156,24.4748882 17.6740073,24 C16.7591991,23.5251118 15.5699662,23.2876712 14.1062729,23.2876712 L7.02569236,23.2876712 L7.02569236,39.5068493 L0,39.5068493 L0,0.493150685 L16.7409076,0.493150685 C21.1685796,0.493150685 24.5350235,1.46117753 26.8403403,3.39726027 C29.1456572,5.33334301 30.2982983,8.10957096 30.2982983,11.7260274 C30.2982983,14.3196477 29.6122024,16.5205389 28.23999,18.3287671 C26.8677776,20.1369953 24.9192652,21.4246537 22.3943944,22.1917808 C24.6997112,22.666669 26.3646373,24.2739589 27.3892226,27.0136986 L32.1644978,39.5068493 Z M15.7529196,17.8082192 C18.4241597,17.8082192 20.4001159,17.3150734 21.6808475,16.3287671 C22.9615791,15.3424608 23.6019353,13.8447589 23.6019353,11.8356164 C23.6019353,9.86300384 22.970727,8.3926989 21.7082916,7.42465753 C20.4458562,6.45661616 18.4607521,5.97260274 15.7529196,5.97260274 L6.91591592,5.97260274 L6.91591592,17.8082192 L15.7529196,17.8082192 Z M40.1860194,39.5068493 L40.1860194,0.493150685 L66.3128128,0.493150685 L66.3128128,6.08219178 L47.1019353,6.08219178 L47.1019353,16.8767123 L65.1601602,16.8767123 L65.1601602,22.4657534 L47.1019353,22.4657534 L47.1019353,33.9178082 L66.3128128,33.9178082 L66.3128128,39.5068493 L40.1860194,39.5068493 Z M103.942609,39.5068493 L111.132966,39.5068493 L93.7334001,0.493150685 L87.9701368,0.493150685 L70.5705706,39.5068493 L77.9255923,39.5068493 L90.9341008,9.36986301 L103.942609,39.5068493 Z M132.629546,40 C128.787351,40 125.430056,39.1780904 122.557558,37.5342466 C119.68506,35.8904027 117.480405,33.5616589 115.943527,30.5479452 C114.406649,27.5342315 113.638222,24.0000203 113.638222,19.9452055 C113.638222,15.9269205 114.406649,12.410974 115.943527,9.39726027 C117.480405,6.38354658 119.68506,4.06393507 122.557558,2.43835616 C125.430056,0.81277726 128.787351,0 132.629546,0 C135.264194,0 137.743287,0.410954795 140.0669,1.23287671 C142.390513,2.05479863 144.32073,3.19633973 145.857608,4.65753425 L143.552302,9.80821918 C141.79587,8.38355452 140.048613,7.35160137 138.310477,6.71232877 C136.572341,6.07305616 134.715309,5.75342466 132.739323,5.75342466 C128.970313,5.75342466 126.052118,6.97715671 123.984651,9.42465753 C121.917185,11.8721584 120.883467,15.3789726 120.883467,19.9452055 C120.883467,24.5479682 121.908037,28.0821795 123.957207,30.5479452 C126.006378,33.013711 128.93372,34.2465753 132.739323,34.2465753 C134.715309,34.2465753 136.572341,33.9269438 138.310477,33.2876712 C140.048613,32.6483986 141.79587,31.6164455 143.552302,30.1917808 L145.857608,35.3424658 C144.32073,36.8036603 142.390513,37.9452014 140.0669,38.7671233 C137.743287,39.5890452 135.264194,40 132.629546,40 Z M180.974308,0.493150685 L188,0.493150685 L188,39.5068493 L180.974308,39.5068493 L180.974308,22.5753425 L160.940107,22.5753425 L160.940107,39.5068493 L153.969303,39.5068493 L153.969303,0.493150685 L160.940107,0.493150685 L160.940107,16.8219178 L180.974308,16.8219178 L180.974308,0.493150685 Z" id="REACH"></path>
        </g>
        <path d="M130.126515,60 C132.708333,60 135.119823,59.6057348 137.360985,58.8172043 C139.602146,58.0286738 141.511616,56.8637993 143.089394,55.3225806 L143.089394,55.3225806 L141.15303,51.1827957 C139.360101,52.6523297 137.594066,53.718638 135.854924,54.3817204 C134.115783,55.0448029 132.224242,55.3763441 130.180303,55.3763441 C126.2,55.3763441 123.125126,54.0770609 120.955682,51.4784946 C118.786237,48.8799283 117.701515,45.1792115 117.701515,40.3763441 C117.701515,35.5734767 118.795202,31.890681 120.982576,29.327957 C123.169949,26.765233 126.235859,25.483871 130.180303,25.483871 C132.224242,25.483871 134.115783,25.8154122 135.854924,26.4784946 C137.594066,27.1415771 139.360101,28.2078853 141.15303,29.6774194 L141.15303,29.6774194 L143.089394,25.5376344 C141.511616,23.9964158 139.602146,22.8315412 137.360985,22.0430108 C135.119823,21.2544803 132.708333,20.8602151 130.126515,20.8602151 C126.397222,20.8602151 123.169949,21.6487455 120.444697,23.2258065 C117.719444,24.8028674 115.630682,27.0519713 114.178409,29.9731183 C112.726136,32.8942652 112,36.3620072 112,40.3763441 C112,44.390681 112.726136,47.8763441 114.178409,50.8333333 C115.630682,53.7903226 117.719444,56.0573477 120.444697,57.6344086 C123.169949,59.2114695 126.397222,60 130.126515,60 Z M154.976515,59.5698925 L154.976515,44.1397849 C154.976515,41.7383513 155.666793,39.8207885 157.047348,38.3870968 C158.427904,36.953405 160.283586,36.2365591 162.614394,36.2365591 C164.550758,36.2365591 165.985101,36.7741935 166.917424,37.8494624 C167.849747,38.9247312 168.315909,40.6272401 168.315909,42.9569892 L168.315909,42.9569892 L168.315909,59.5698925 L173.748485,59.5698925 L173.748485,42.7419355 C173.748485,35.4659498 170.503283,31.827957 164.012879,31.827957 C161.753788,31.827957 159.754672,32.374552 158.01553,33.4677419 C156.819871,34.21931 155.848782,35.2122886 155.102265,36.4466776 L154.976515,36.6644265 L154.976515,20 L149.543939,20 L149.543939,59.5698925 L154.976515,59.5698925 Z M193.811364,59.9462366 C195.747727,59.9462366 197.648232,59.6326165 199.512879,59.0053763 C201.377525,58.3781362 202.919444,57.5268817 204.138636,56.4516129 L204.138636,56.4516129 L202.471212,52.5806452 C201.180303,53.6200717 199.817677,54.390681 198.383333,54.8924731 C196.94899,55.3942652 195.460859,55.6451613 193.918939,55.6451613 C191.086111,55.6451613 188.934596,54.811828 187.464394,53.1451613 C186.122036,51.6234222 185.392493,49.3770962 185.275766,46.4061833 L185.266935,46.1290323 L204.622727,46.1290323 L204.622727,45.2150538 C204.622727,42.4193548 204.147601,40.0268817 203.197348,38.0376344 C202.247096,36.0483871 200.893434,34.516129 199.136364,33.4408602 C197.379293,32.3655914 195.281566,31.827957 192.843182,31.827957 C190.297222,31.827957 188.056061,32.4193548 186.119697,33.6021505 C184.183333,34.7849462 182.668308,36.4336918 181.574621,38.5483871 C180.480934,40.6630824 179.934091,43.1182796 179.934091,45.9139785 C179.934091,48.8172043 180.489899,51.3261649 181.601515,53.4408602 C182.713131,55.5555556 184.308838,57.1684588 186.388636,58.2795699 C188.468434,59.390681 190.942677,59.9462366 193.811364,59.9462366 Z M199.810953,42.9032258 L185.455193,42.9032258 L185.509473,42.5856855 C185.795625,41.0399866 186.327049,39.7362231 187.103746,38.6743952 L187.30303,38.4139785 C188.665657,36.7114695 190.548232,35.8602151 192.950758,35.8602151 C195.245707,35.8602151 196.984848,36.6308244 198.168182,38.172043 C199.040112,39.3076778 199.58107,40.8130541 199.791056,42.688172 L199.810953,42.9032258 Z M222.587879,59.9462366 C224.524242,59.9462366 226.388889,59.6415771 228.181818,59.0322581 C229.974747,58.4229391 231.444949,57.5806452 232.592424,56.5053763 L232.592424,56.5053763 L230.925,52.5806452 C229.669949,53.5842294 228.39697,54.3369176 227.106061,54.8387097 C225.815152,55.3405018 224.524242,55.5913978 223.233333,55.5913978 C220.615657,55.5913978 218.571717,54.7670251 217.101515,53.1182796 C215.631313,51.4695341 214.896212,49.0860215 214.896212,45.9677419 C214.896212,42.8494624 215.640278,40.4480287 217.128409,38.7634409 C218.61654,37.078853 220.651515,36.2365591 223.233333,36.2365591 C224.560101,36.2365591 225.859975,36.4874552 227.132955,36.9892473 C228.405934,37.4910394 229.669949,38.2437276 230.925,39.2473118 L230.925,39.2473118 L232.592424,35.3225806 C231.480808,34.2114695 230.046465,33.3512545 228.289394,32.7419355 C226.532323,32.1326165 224.721465,31.827957 222.856818,31.827957 C220.095707,31.827957 217.702146,32.4193548 215.676136,33.6021505 C213.650126,34.7849462 212.081313,36.4426523 210.969697,38.5752688 C209.858081,40.7078853 209.302273,43.1899642 209.302273,46.0215054 C209.302273,48.8530466 209.840152,51.3082437 210.915909,53.3870968 C211.991667,55.4659498 213.524621,57.078853 215.514773,58.2258065 C217.504924,59.3727599 219.862626,59.9462366 222.587879,59.9462366 Z M243.081061,59.5698925 L243.081061,46.7618728 L256.043939,59.5698925 L262.982576,59.5698925 L248.913684,45.5085125 L261.85303,32.5268817 L255.129545,32.5268817 L243.081061,44.718862 L243.081061,20 L237.648485,20 L237.648485,59.5698925 L243.081061,59.5698925 Z M277.989394,59.9462366 C280.642929,59.9462366 282.964773,59.3727599 284.954924,58.2258065 C286.945076,57.078853 288.486995,55.4569892 289.580682,53.3602151 C290.674369,51.2634409 291.221212,48.7634409 291.221212,45.8602151 C291.221212,43.0286738 290.674369,40.5555556 289.580682,38.4408602 C288.486995,36.3261649 286.945076,34.6953405 284.954924,33.5483871 C282.964773,32.4014337 280.642929,31.827957 277.989394,31.827957 C275.3,31.827957 272.960227,32.4014337 270.970076,33.5483871 C268.979924,34.6953405 267.44697,36.3261649 266.371212,38.4408602 C265.295455,40.5555556 264.757576,43.0286738 264.757576,45.8602151 C264.757576,48.7634409 265.295455,51.2634409 266.371212,53.3602151 C267.44697,55.4569892 268.979924,57.078853 270.970076,58.2258065 C272.960227,59.3727599 275.3,59.9462366 277.989394,59.9462366 Z M277.989394,55.6451613 C275.479293,55.6451613 273.551894,54.8207885 272.207197,53.172043 C270.8625,51.5232975 270.190152,49.0860215 270.190152,45.8602151 C270.190152,42.7419355 270.880429,40.3494624 272.260985,38.6827957 C273.64154,37.016129 275.55101,36.1827957 277.989394,36.1827957 C280.427778,36.1827957 282.319318,37.016129 283.664015,38.6827957 C285.008712,40.3494624 285.681061,42.7419355 285.681061,45.8602151 C285.681061,49.0860215 285.008712,51.5232975 283.664015,53.172043 C282.319318,54.8207885 280.427778,55.6451613 277.989394,55.6451613 Z M307.196212,59.9462366 C309.347727,59.9462366 311.248232,59.4086022 312.897727,58.3333333 C314.134848,57.5268817 315.119839,56.438172 315.852699,55.0672043 L315.856061,55.0604839 L315.856061,59.5698925 L321.127273,59.5698925 L321.127273,32.4731183 L315.694697,32.4731183 L315.694697,47.688172 C315.694697,50.0537634 315.022348,51.953405 313.677652,53.3870968 C312.332955,54.8207885 310.566919,55.5376344 308.379545,55.5376344 C306.47904,55.5376344 305.071591,55.0089606 304.157197,53.9516129 C303.242803,52.8942652 302.785606,51.2544803 302.785606,49.0322581 L302.785606,49.0322581 L302.785606,32.4731183 L297.35303,32.4731183 L297.35303,49.0860215 C297.35303,52.7060932 298.177778,55.421147 299.827273,57.2311828 C301.476768,59.0412186 303.933081,59.9462366 307.196212,59.9462366 Z M339.468939,59.9462366 C340.22197,59.9462366 340.921212,59.9014337 341.566667,59.811828 C342.212121,59.7222222 342.857576,59.5698925 343.50303,59.3548387 L343.50303,59.3548387 L343.50303,54.9462366 C342.965152,55.0896057 342.481061,55.1971326 342.050758,55.2688172 C341.620455,55.3405018 341.154293,55.3763441 340.652273,55.3763441 C339.791667,55.3763441 339.011742,55.2240143 338.3125,54.9193548 C337.613258,54.6146953 337.066414,54.0949821 336.67197,53.3602151 C336.277525,52.625448 336.080303,51.5949821 336.080303,50.2688172 L336.080303,50.2688172 L336.080303,36.6666667 L343.556818,36.6666667 L343.556818,32.4731183 L336.080303,32.4731183 L336.080303,23.8172043 L330.647727,25.6989247 L330.647727,32.4731183 L325.376515,32.4731183 L325.376515,36.6666667 L330.647727,36.6666667 L330.647727,50.6989247 C330.647727,53.6070381 331.358361,55.8374989 332.779628,57.390307 L332.9875,57.6075269 C334.547348,59.1666667 336.707828,59.9462366 339.468939,59.9462366 Z M375.237879,59.5698925 L382.427525,40.0459229 L389.706818,59.5698925 L394.655303,59.5698925 L404.982576,32.4731183 L399.657576,32.4731183 L392.207955,53.1843638 L384.758333,32.4731183 L380.455303,32.4731183 L372.958617,53.1787634 L365.609848,32.4731183 L359.962121,32.4731183 L370.289394,59.5698925 L375.237879,59.5698925 Z M415.847727,26.344086 L415.847727,20.6451613 L409.554545,20.6451613 L409.554545,26.344086 L415.847727,26.344086 Z M415.363636,59.5698925 L415.363636,32.4731183 L409.931061,32.4731183 L409.931061,59.5698925 L415.363636,59.5698925 Z M433.759091,59.9462366 C434.512121,59.9462366 435.211364,59.9014337 435.856818,59.811828 C436.502273,59.7222222 437.147727,59.5698925 437.793182,59.3548387 L437.793182,59.3548387 L437.793182,54.9462366 C437.255303,55.0896057 436.771212,55.1971326 436.340909,55.2688172 C435.910606,55.3405018 435.444444,55.3763441 434.942424,55.3763441 C434.081818,55.3763441 433.301894,55.2240143 432.602652,54.9193548 C431.903409,54.6146953 431.356566,54.0949821 430.962121,53.3602151 C430.567677,52.625448 430.370455,51.5949821 430.370455,50.2688172 L430.370455,50.2688172 L430.370455,36.6666667 L437.84697,36.6666667 L437.84697,32.4731183 L430.370455,32.4731183 L430.370455,23.8172043 L424.937879,25.6989247 L424.937879,32.4731183 L419.666667,32.4731183 L419.666667,36.6666667 L424.937879,36.6666667 L424.937879,50.6989247 C424.937879,53.6070381 425.648512,55.8374989 427.069779,57.390307 L427.277652,57.6075269 C428.8375,59.1666667 430.99798,59.9462366 433.759091,59.9462366 Z M448.22803,59.5698925 L448.22803,44.1397849 C448.22803,41.7383513 448.918308,39.8207885 450.298864,38.3870968 C451.679419,36.953405 453.535101,36.2365591 455.865909,36.2365591 C457.802273,36.2365591 459.236616,36.7741935 460.168939,37.8494624 C461.101263,38.9247312 461.567424,40.6272401 461.567424,42.9569892 L461.567424,42.9569892 L461.567424,59.5698925 L467,59.5698925 L467,42.7419355 C467,35.4659498 463.754798,31.827957 457.264394,31.827957 C455.005303,31.827957 453.006187,32.374552 451.267045,33.4677419 C450.071386,34.21931 449.100297,35.2122886 448.35378,36.4466776 L448.22803,36.6644265 L448.22803,20 L442.795455,20 L442.795455,59.5698925 L448.22803,59.5698925 Z" id="Checkoutwith" fill="#686C73" fill-rule="nonzero"></path>
    </g>
</svg>