<?xml version="1.0" encoding="UTF-8"?>
<svg width="200px" height="32px" viewBox="0 0 200 32" version="1.1" xmlns="http://www.w3.org/2000/svg" xmlns:xlink="http://www.w3.org/1999/xlink">
    <!-- Generator: Sketch 63.1 (92452) - https://sketch.com -->
    <title>Logo</title>
    <desc>Created with Sketch.</desc>
    <defs>
        <linearGradient x1="0%" y1="0%" x2="100%" y2="100%" id="linearGradient-1">
            <stop stop-color="#9700C8" offset="0%"></stop>
            <stop stop-color="#FF9F00" offset="100%"></stop>
        </linearGradient>
    </defs>
    <g id="Logo" stroke="none" stroke-width="1" fill="none" fill-rule="evenodd">
        <g id="Logos" transform="translate(-40.000000, -593.000000)">
            <g id="Logo" transform="translate(40.000000, 593.000000)">
                <g id="Logo/Icon/Color" fill="url(#linearGradient-1)">
                    <g id="Icon">
                        <path d="M32,0 L32,32 L0,32 L0,0 L32,0 Z M18.0072144,6.8 L14.0697395,6.8 L6.4,25.2 L9.58076152,25.2 L15.9166333,9.57614035 L22.0601202,25.2 L25.6,25.2 L18.0072144,6.8 Z" id="Combined-Shape" fill-rule="nonzero"></path>
                    </g>
                </g>
                <g id="Logo/Text" transform="translate(44.000000, 10.000000)" fill="#2A2D34">
                    <path d="M9.58091425,11.8520548 L7.35735736,11.8520548 L5.8695362,7.95616438 C5.73873808,7.59451874 5.53709401,7.34246647 5.26459793,7.2 C4.99210185,7.05753353 4.63786226,6.98630137 4.20186854,6.98630137 L2.09275943,6.98630137 L2.09275943,11.8520548 L0,11.8520548 L0,0.147945205 L4.98665332,0.147945205 C6.30553434,0.147945205 7.30830487,0.43835326 7.99499499,1.01917808 C8.68168512,1.6000029 9.02502503,2.43287129 9.02502503,3.51780822 C9.02502503,4.2958943 8.82065603,4.95616167 8.41191191,5.49863014 C8.00316779,6.0410986 7.42275985,6.42739611 6.67067067,6.65753425 C7.35736079,6.80000071 7.85329622,7.28218767 8.15849183,8.10410959 L9.58091425,11.8520548 Z M4.69235903,5.34246575 C5.48804758,5.34246575 6.07663028,5.19452203 6.45812479,4.89863014 C6.8396193,4.60273825 7.0303637,4.15342767 7.0303637,3.55068493 C7.0303637,2.95890115 6.84234422,2.51780967 6.46629963,2.22739726 C6.09025504,1.93698485 5.49894742,1.79178082 4.69235903,1.79178082 L2.06006006,1.79178082 L2.06006006,5.34246575 L4.69235903,5.34246575 Z M11.9703036,11.8520548 L11.9703036,0.147945205 L19.7527528,0.147945205 L19.7527528,1.82465753 L14.0303637,1.82465753 L14.0303637,5.0630137 L19.4094094,5.0630137 L19.4094094,6.73972603 L14.0303637,6.73972603 L14.0303637,10.1753425 L19.7527528,10.1753425 L19.7527528,11.8520548 L11.9703036,11.8520548 Z M30.9616283,11.8520548 L33.1034368,11.8520548 L27.9205873,0.147945205 L26.2038705,0.147945205 L21.021021,11.8520548 L23.2118785,11.8520548 L27.0867534,2.8109589 L30.9616283,11.8520548 Z M39.5066733,12 C38.3621898,12 37.3621442,11.7534271 36.5065065,11.260274 C35.6508688,10.7671208 34.9941631,10.0684977 34.5363697,9.16438356 C34.0785763,8.26026945 33.849683,7.20000608 33.849683,5.98356164 C33.849683,4.77807616 34.0785763,3.72329219 34.5363697,2.81917808 C34.9941631,1.91506397 35.6508688,1.21918052 36.5065065,0.731506849 C37.3621442,0.243833178 38.3621898,0 39.5066733,0 C40.291462,0 41.0299153,0.123286438 41.7220554,0.369863014 C42.4141954,0.616439589 42.9891535,0.958901918 43.4469469,1.39726027 L42.7602603,2.94246575 C42.2370678,2.51506636 41.7166081,2.20548041 41.1988655,2.01369863 C40.681123,1.82191685 40.1279642,1.7260274 39.5393727,1.7260274 C38.4166889,1.7260274 37.5474394,2.09314701 36.9315983,2.82739726 C36.3157571,3.56164751 36.0078412,4.61369178 36.0078412,5.98356164 C36.0078412,7.36439047 36.3130322,8.42465384 36.9234234,9.16438356 C37.5338146,9.90411329 38.405789,10.2739726 39.5393727,10.2739726 C40.1279642,10.2739726 40.681123,10.1780832 41.1988655,9.98630137 C41.7166081,9.79451959 42.2370678,9.48493364 42.7602603,9.05753425 L43.4469469,10.6027397 C42.9891535,11.0410981 42.4141954,11.3835604 41.7220554,11.630137 C41.0299153,11.8767136 40.291462,12 39.5066733,12 Z M53.9072406,0.147945205 L56,0.147945205 L56,11.8520548 L53.9072406,11.8520548 L53.9072406,6.77260274 L47.9396063,6.77260274 L47.9396063,11.8520548 L45.8631965,11.8520548 L45.8631965,0.147945205 L47.9396063,0.147945205 L47.9396063,5.04657534 L53.9072406,5.04657534 L53.9072406,0.147945205 Z" id="REACH"></path>
                </g>
                <path d="M111.174419,21.8875502 L111.174419,15.0441767 L113.066244,15.0441767 L113.066244,13.7911647 L111.174419,13.7911647 L111.174419,12.8915663 C111.174419,11.8741633 111.617982,11.3654618 112.505109,11.3654618 C112.761628,11.3654618 113.034179,11.4082999 113.322763,11.4939759 L113.322763,11.4939759 L113.322763,10.1606426 C112.970049,10.0535475 112.579927,10 112.152396,10 C111.329399,10 110.690774,10.2356091 110.236522,10.7068273 C109.78227,11.1780455 109.555144,11.8634538 109.555144,12.7630522 L109.555144,12.7630522 L109.555144,13.7911647 L108,13.7911647 L108,15.0441767 L109.555144,15.0441767 L109.555144,21.8875502 L111.174419,21.8875502 Z M118.196617,22 C118.976862,22 119.666256,21.8286479 120.264799,21.4859438 C120.863343,21.1432396 121.325611,20.6559572 121.651603,20.0240964 C121.977596,19.3922356 122.140592,18.6532798 122.140592,17.8072289 C122.140592,16.961178 121.977596,16.2195448 121.651603,15.5823293 C121.325611,14.9451138 120.863343,14.4551539 120.264799,14.1124498 C119.666256,13.7697456 118.976862,13.5983936 118.196617,13.5983936 C117.405685,13.5983936 116.710947,13.7697456 116.112403,14.1124498 C115.51386,14.4551539 115.051591,14.9451138 114.725599,15.5823293 C114.399607,16.2195448 114.23661,16.961178 114.23661,17.8072289 C114.23661,18.6532798 114.399607,19.3922356 114.725599,20.0240964 C115.051591,20.6559572 115.51386,21.1432396 116.112403,21.4859438 C116.710947,21.8286479 117.405685,22 118.196617,22 Z M118.180585,20.7148594 C117.443094,20.7148594 116.873943,20.4685408 116.473132,19.9759036 C116.072322,19.4832664 115.871917,18.7603748 115.871917,17.8072289 C115.871917,16.875502 116.074994,16.1579652 116.481149,15.6546185 C116.887303,15.1512718 117.459126,14.8995984 118.196617,14.8995984 C118.92342,14.8995984 119.487227,15.1512718 119.888037,15.6546185 C120.288848,16.1579652 120.489253,16.875502 120.489253,17.8072289 C120.489253,18.7603748 120.29152,19.4832664 119.896054,19.9759036 C119.500587,20.4685408 118.928764,20.7148594 118.180585,20.7148594 Z M125.635659,21.8875502 L125.635659,17.373494 C125.635659,16.6987952 125.820032,16.1392236 126.188777,15.6947791 C126.557523,15.2503347 127.110641,15.0281124 127.848132,15.0281124 C128.190157,15.0281124 128.505462,15.08166 128.794045,15.188755 L128.794045,15.188755 L128.82611,13.7108434 C128.558903,13.6358768 128.302384,13.5983936 128.056554,13.5983936 C127.500763,13.5983936 126.998414,13.7402945 126.549507,14.0240964 C126.100599,14.3078983 125.769262,14.7175368 125.555497,15.253012 L125.555497,15.253012 L125.411205,13.7911647 L123.904158,13.7911647 C123.989664,14.4658635 124.032417,15.2262383 124.032417,16.0722892 L124.032417,16.0722892 L124.032417,21.8875502 L125.635659,21.8875502 Z M140.423538,21.8875502 C141.642001,21.8875502 142.590586,21.6144578 143.269292,21.0682731 C143.947997,20.5220884 144.28735,19.7563588 144.28735,18.7710843 C144.28735,18.064257 144.10565,17.4698795 143.742248,16.9879518 C143.378847,16.5060241 142.865809,16.1740295 142.203136,15.9919679 C142.769615,15.7884873 143.210506,15.4645248 143.52581,15.0200803 C143.841115,14.5756359 143.998767,14.0481928 143.998767,13.437751 C143.998767,12.4953146 143.670102,11.7617135 143.012773,11.2369478 C142.355444,10.7121821 141.438924,10.4497992 140.263214,10.4497992 L140.263214,10.4497992 L135.485553,10.4497992 L135.485553,21.8875502 L140.423538,21.8875502 Z M140.006695,15.4136546 L137.12086,15.4136546 L137.12086,11.7831325 L140.006695,11.7831325 C141.599248,11.7831325 142.395525,12.37751 142.395525,13.5662651 C142.395525,14.7978581 141.599248,15.4136546 140.006695,15.4136546 L140.006695,15.4136546 Z M140.263214,20.5542169 L137.12086,20.5542169 L137.12086,16.746988 L140.263214,16.746988 C141.086211,16.746988 141.692771,16.9049531 142.082893,17.2208835 C142.473015,17.5368139 142.668076,18.021419 142.668076,18.6746988 C142.668076,19.3172691 142.475687,19.7911647 142.090909,20.0963855 C141.706131,20.4016064 141.096899,20.5542169 140.263214,20.5542169 L140.263214,20.5542169 Z M149.19327,22 C149.759749,22 150.267442,21.8741633 150.71635,21.62249 C151.165257,21.3708166 151.51797,21.0093708 151.774489,20.5381526 L151.774489,20.5381526 L151.774489,21.8875502 L153.345666,21.8875502 L153.345666,13.7911647 L151.726392,13.7911647 L151.726392,18.3373494 C151.726392,19.0441767 151.525987,19.6117805 151.125176,20.0401606 C150.724366,20.4685408 150.192624,20.6827309 149.529951,20.6827309 C148.97416,20.6827309 148.559989,20.5247657 148.287438,20.2088353 C148.014887,19.892905 147.878612,19.4029451 147.878612,18.7389558 L147.878612,18.7389558 L147.878612,13.7911647 L146.27537,13.7911647 L146.27537,18.7550201 C146.27537,20.91834 147.248003,22 149.19327,22 Z M158.540169,22 C159.544867,22 160.338472,21.7884873 160.920983,21.3654618 C161.503494,20.9424364 161.79475,20.3668005 161.79475,19.6385542 C161.79475,19.0495315 161.610377,18.5702811 161.241631,18.2008032 C160.872886,17.8313253 160.303735,17.5609103 159.534179,17.3895582 L159.534179,17.3895582 L158.155391,17.0522088 C157.759925,16.9558233 157.471341,16.8219545 157.289641,16.6506024 C157.10794,16.4792503 157.017089,16.2543507 157.017089,15.9759036 C157.017089,15.62249 157.161381,15.3467202 157.449965,15.1485944 C157.738548,14.9504685 158.144703,14.8514056 158.668428,14.8514056 C159.534179,14.8514056 160.357176,15.1619813 161.137421,15.7831325 L161.137421,15.7831325 L161.634426,14.6425703 C161.271024,14.3105756 160.830133,14.0535475 160.311751,13.8714859 C159.79337,13.6894244 159.245595,13.5983936 158.668428,13.5983936 C157.706483,13.5983936 156.934255,13.8232932 156.351744,14.2730924 C155.769233,14.7228916 155.477977,15.3119143 155.477977,16.0401606 C155.477977,16.6077644 155.66235,17.08166 156.031096,17.4618474 C156.399841,17.8420348 156.936927,18.107095 157.642354,18.2570281 L157.642354,18.2570281 L158.989077,18.5783133 C159.459361,18.6961178 159.79337,18.8380187 159.991103,19.0040161 C160.188836,19.1700134 160.287703,19.3975904 160.287703,19.686747 C160.287703,20.0294511 160.143411,20.2945114 159.854827,20.4819277 C159.566244,20.669344 159.144057,20.7630522 158.588266,20.7630522 C157.498062,20.7630522 156.530773,20.4417671 155.686399,19.7991968 L155.686399,19.7991968 L155.205426,20.9718876 C156.017735,21.6572959 157.129316,22 158.540169,22 Z M165.434109,11.9598394 L165.434109,10.2570281 L163.558316,10.2570281 L163.558316,11.9598394 L165.434109,11.9598394 Z M165.305849,21.8875502 L165.305849,13.7911647 L163.702607,13.7911647 L163.702607,21.8875502 L165.305849,21.8875502 Z M169.281889,21.8875502 L169.281889,17.2771084 C169.281889,16.5595716 169.487638,15.9866131 169.899137,15.5582329 C170.310635,15.1298527 170.85841,14.9156627 171.542459,14.9156627 C172.141003,14.9156627 172.57655,15.0763052 172.849101,15.3975904 C173.121653,15.7188755 173.257928,16.2329317 173.257928,16.939759 L173.257928,16.939759 L173.257928,21.8875502 L174.877202,21.8875502 L174.877202,16.8433735 C174.877202,14.6800535 173.909913,13.5983936 171.975335,13.5983936 C171.355415,13.5983936 170.802296,13.7349398 170.31598,14.0080321 C169.829663,14.2811245 169.458245,14.6746988 169.201727,15.188755 L169.201727,15.188755 L169.057435,13.7911647 L167.550388,13.7911647 C167.635894,14.4658635 167.678647,15.2262383 167.678647,16.0722892 L167.678647,16.0722892 L167.678647,21.8875502 L169.281889,21.8875502 Z M180.857294,22 C181.423773,22 181.987579,21.9062918 182.548714,21.7188755 C183.109848,21.5314592 183.572117,21.2771084 183.935518,20.9558233 L183.935518,20.9558233 L183.438513,19.7991968 C182.668957,20.4096386 181.819239,20.7148594 180.889359,20.7148594 C179.221987,20.7148594 178.361581,19.7670683 178.30814,17.8714859 L178.30814,17.8714859 L184.07981,17.8714859 L184.07981,17.5983936 C184.07981,16.3453815 183.767178,15.3654618 183.141913,14.6586345 C182.516649,13.9518072 181.658915,13.5983936 180.56871,13.5983936 C179.820531,13.5983936 179.152514,13.7751004 178.564658,14.1285141 C177.976803,14.4819277 177.519879,14.9799197 177.193887,15.62249 C176.867894,16.2650602 176.704898,16.9986613 176.704898,17.8232932 C176.704898,19.1191432 177.073643,20.1392236 177.811135,20.8835341 C178.548626,21.6278447 179.564012,22 180.857294,22 Z M182.652925,16.9076305 L178.372269,16.9076305 C178.479152,16.2329317 178.724982,15.7135207 179.10976,15.3493976 C179.494538,14.9852744 179.991543,14.8032129 180.600775,14.8032129 C181.199319,14.8032129 181.674947,14.9825971 182.02766,15.3413655 C182.380374,15.7001339 182.588795,16.2222222 182.652925,16.9076305 L182.652925,16.9076305 Z M188.761276,22 C189.765974,22 190.559578,21.7884873 191.142089,21.3654618 C191.724601,20.9424364 192.015856,20.3668005 192.015856,19.6385542 C192.015856,19.0495315 191.831483,18.5702811 191.462738,18.2008032 C191.093992,17.8313253 190.524841,17.5609103 189.755285,17.3895582 L189.755285,17.3895582 L188.376498,17.0522088 C187.981031,16.9558233 187.692448,16.8219545 187.510747,16.6506024 C187.329046,16.4792503 187.238196,16.2543507 187.238196,15.9759036 C187.238196,15.62249 187.382488,15.3467202 187.671071,15.1485944 C187.959655,14.9504685 188.365809,14.8514056 188.889535,14.8514056 C189.755285,14.8514056 190.578283,15.1619813 191.358527,15.7831325 L191.358527,15.7831325 L191.855532,14.6425703 C191.492131,14.3105756 191.051239,14.0535475 190.532858,13.8714859 C190.014476,13.6894244 189.466702,13.5983936 188.889535,13.5983936 C187.92759,13.5983936 187.155362,13.8232932 186.572851,14.2730924 C185.990339,14.7228916 185.699084,15.3119143 185.699084,16.0401606 C185.699084,16.6077644 185.883457,17.08166 186.252202,17.4618474 C186.620948,17.8420348 187.158034,18.107095 187.86346,18.2570281 L187.86346,18.2570281 L189.210183,18.5783133 C189.680467,18.6961178 190.014476,18.8380187 190.212209,19.0040161 C190.409942,19.1700134 190.508809,19.3975904 190.508809,19.686747 C190.508809,20.0294511 190.364517,20.2945114 190.075934,20.4819277 C189.78735,20.669344 189.365163,20.7630522 188.809373,20.7630522 C187.719168,20.7630522 186.751879,20.4417671 185.907505,19.7991968 L185.907505,19.7991968 L185.426533,20.9718876 C186.238842,21.6572959 187.350423,22 188.761276,22 Z M196.745419,22 C197.750117,22 198.543722,21.7884873 199.126233,21.3654618 C199.708744,20.9424364 200,20.3668005 200,19.6385542 C200,19.0495315 199.815627,18.5702811 199.446882,18.2008032 C199.078136,17.8313253 198.508985,17.5609103 197.739429,17.3895582 L197.739429,17.3895582 L196.360641,17.0522088 C195.965175,16.9558233 195.676591,16.8219545 195.494891,16.6506024 C195.31319,16.4792503 195.22234,16.2543507 195.22234,15.9759036 C195.22234,15.62249 195.366631,15.3467202 195.655215,15.1485944 C195.943798,14.9504685 196.349953,14.8514056 196.873679,14.8514056 C197.739429,14.8514056 198.562427,15.1619813 199.342671,15.7831325 L199.342671,15.7831325 L199.839676,14.6425703 C199.476274,14.3105756 199.035383,14.0535475 198.517001,13.8714859 C197.99862,13.6894244 197.450846,13.5983936 196.873679,13.5983936 C195.911734,13.5983936 195.139506,13.8232932 194.556994,14.2730924 C193.974483,14.7228916 193.683228,15.3119143 193.683228,16.0401606 C193.683228,16.6077644 193.8676,17.08166 194.236346,17.4618474 C194.605092,17.8420348 195.142178,18.107095 195.847604,18.2570281 L195.847604,18.2570281 L197.194327,18.5783133 C197.664611,18.6961178 197.99862,18.8380187 198.196353,19.0040161 C198.394086,19.1700134 198.492953,19.3975904 198.492953,19.686747 C198.492953,20.0294511 198.348661,20.2945114 198.060078,20.4819277 C197.771494,20.669344 197.349307,20.7630522 196.793517,20.7630522 C195.703312,20.7630522 194.736023,20.4417671 193.891649,19.7991968 L193.891649,19.7991968 L193.410677,20.9718876 C194.222986,21.6572959 195.334567,22 196.745419,22 Z" id="forBusiness" fill="#686C73" fill-rule="nonzero"></path>
            </g>
        </g>
    </g>
</svg>